<svg width="87" height="57" viewBox="0 0 87 57" fill="none" xmlns="http://www.w3.org/2000/svg">
<path d="M80.306 53.1718C80.306 53.1718 79.5452 53.1045 78.1146 52.9595C77.4049 52.887 76.5089 52.7132 75.4707 52.5436C74.9488 52.4558 74.4048 52.3095 73.8151 52.1859C73.2254 52.0624 72.5961 51.9209 71.9616 51.7385C68.8182 50.88 65.7721 49.6833 62.8737 48.1686C59.1121 46.1846 55.6266 43.6926 52.5102 40.7591C48.7991 37.2628 45.7223 33.1188 43.4226 28.5198C42.1774 25.9856 41.3275 23.2667 40.9039 20.4622C40.4414 17.486 40.7139 14.4384 41.6964 11.5982C42.7425 8.65707 44.4985 6.03602 46.8002 3.98006C49.1685 1.81502 52.1319 0.454861 55.2838 0.0862681C58.5254 -0.191044 61.7636 0.660383 64.4755 2.5031C67.2918 4.31678 69.422 7.06015 70.5154 10.2815C70.7759 11.0966 70.9551 11.9367 71.05 12.7889C71.1019 13.2326 71.1146 13.6233 71.1262 14.1074C71.1379 14.5914 71.1234 14.8711 71.0615 15.3251C70.9086 17.0193 70.4809 18.6753 69.7961 20.2249C68.4278 23.2233 66.3795 25.842 63.8225 27.862C61.3593 29.7917 58.6632 31.3864 55.8012 32.6066C53.0903 33.8392 50.3092 34.9026 47.4733 35.7909C42.0307 37.5306 36.3049 38.141 30.6299 37.5867C25.5291 37.0011 20.6016 35.3393 16.1573 32.7057C12.439 30.4946 9.02659 27.7818 6.01141 24.64C3.61321 22.1808 1.82969 19.1637 0.812666 15.8454C0.135396 13.69 0.00459275 11.393 0.432596 9.17135C0.567505 8.59688 0.744796 8.03377 0.962943 7.48688L1.20226 6.92418C1.26485 6.78172 1.37967 6.67033 1.52181 6.61415C1.66395 6.55798 1.82197 6.56155 1.96155 6.62411C2.09271 6.68318 2.19742 6.79068 2.25488 6.92529C2.31234 7.0599 2.31833 7.21176 2.27169 7.3507L2.10109 7.86757C1.95659 8.37052 1.84828 8.88367 1.77701 9.40289C1.53708 11.3944 1.77998 13.4158 2.48418 15.2879C3.59523 18.2313 5.34621 20.8759 7.60386 23.0205C10.5615 25.8884 13.8558 28.3673 17.4107 30.4001C21.593 32.7681 26.1911 34.2627 30.9396 34.7977C36.2619 35.3396 41.6362 34.7945 46.7521 33.1939C49.4896 32.3493 52.1767 31.3413 54.7996 30.1753C57.4562 29.0698 59.9738 27.6412 62.2983 25.9201C64.6121 24.1932 66.4858 21.9194 67.7604 19.2915C68.3652 17.9974 68.7553 16.609 68.9147 15.1832C68.9544 14.8137 68.9757 14.4422 68.9782 14.0704C68.9759 13.7731 68.9746 13.3825 68.9386 13.0381C68.8757 12.3302 68.7407 11.631 68.5357 10.952C67.6112 8.18077 65.8319 5.79385 63.467 4.15239C61.1022 2.51094 58.2805 1.70429 55.4289 1.85448C52.6059 2.13697 49.937 3.3069 47.7868 5.20432C45.6465 7.06131 44.0007 9.44509 43.0034 12.1324C42.0505 14.7482 41.7608 17.5693 42.1615 20.3313C42.538 23.0078 43.3342 25.6042 44.5194 28.0197C46.7274 32.482 49.6835 36.5111 53.2527 39.9225C56.2829 42.8012 59.6752 45.2509 63.3391 47.2063C66.1698 48.7082 69.1608 49.8683 72.2521 50.6634C72.8865 50.8574 73.4989 50.9812 74.0941 51.1223C74.6893 51.2634 75.2108 51.3862 75.7101 51.462C76.7202 51.6021 77.5652 51.7695 78.2978 51.8189L80.41 52.007C80.4908 52.0062 80.571 52.0229 80.6452 52.0558C80.7194 52.0887 80.786 52.1372 80.8408 52.1982C80.8957 52.2592 80.9374 52.3313 80.9634 52.4098C80.9894 52.4884 80.999 52.5716 80.9917 52.6542C80.9844 52.7368 80.9603 52.8169 80.921 52.8894C80.8816 52.9619 80.8279 53.025 80.7633 53.0749C80.6987 53.1248 80.6246 53.1602 80.5458 53.1789C80.467 53.1976 80.3853 53.1991 80.3059 53.1835L80.306 53.1718Z" fill="#5E5C5A"/>
<path d="M81.9534 48.6147C82.2787 48.9229 82.6229 49.2093 82.9839 49.4722C83.339 49.7387 83.7056 49.9938 84.0838 50.2256C84.8382 50.6964 85.6327 51.096 86.4575 51.4195C86.6428 51.5026 86.7908 51.6543 86.8719 51.8444C86.953 52.0344 86.9613 52.2489 86.8951 52.4449C86.8414 52.5878 86.7469 52.7106 86.624 52.7974L86.3891 52.9636C85.5066 53.6062 84.6576 54.3075 83.7416 54.9031C83.5182 55.0578 83.2837 55.1892 83.0376 55.3437C82.8071 55.5014 82.5662 55.6428 82.3168 55.7666C81.825 56.0165 81.3031 56.1985 80.7648 56.3081L79.7672 54.5415C80.0804 54.483 80.3999 54.4691 80.7168 54.5002C80.808 54.509 80.8966 54.5364 80.9774 54.5806C81.0582 54.6249 81.1296 54.6852 81.1875 54.758C81.2454 54.8309 81.2886 54.9148 81.3146 55.0049C81.3406 55.095 81.3488 55.1895 81.3389 55.2829C81.3289 55.3715 81.3049 55.4579 81.2678 55.5386C81.1167 55.8244 80.9324 56.0904 80.719 56.3309C80.5624 56.5246 80.3371 56.6466 80.0928 56.6699C79.8484 56.6933 79.605 56.6162 79.4161 56.4555C79.2272 56.2947 79.1083 56.0636 79.0856 55.813C79.0628 55.5624 79.138 55.3127 79.2947 55.1189L79.7215 54.5643C80.0783 54.1094 80.5027 53.7149 80.9792 53.3956C81.2072 53.2365 81.4441 53.0913 81.6888 52.9608C81.9347 52.8296 82.1749 52.6926 82.4434 52.5733C83.467 52.1101 84.5239 51.7288 85.6048 51.4328L85.5422 52.9712C84.827 52.3739 84.1174 51.7942 83.3962 51.2261L82.3086 50.3912C81.9537 50.1131 81.5703 49.8404 81.2037 49.5854C81.1402 49.543 81.0856 49.488 81.0431 49.4237C81.0005 49.3595 80.9709 49.2872 80.9559 49.211C80.9408 49.1349 80.9408 49.0564 80.9556 48.9802C80.9705 48.904 80.9999 48.8316 81.0423 48.7673C81.0837 48.7022 81.1372 48.6462 81.1999 48.6025C81.2626 48.5589 81.3331 48.5285 81.4073 48.5131C81.4815 48.4977 81.558 48.4976 81.6323 48.5128C81.7066 48.528 81.7771 48.5583 81.8399 48.6017L81.9534 48.6147Z" fill="#5E5C5A"/>
</svg>
