<?xml version="1.0" encoding="utf-8"?><svg viewBox="0 0 35 36" xmlns="http://www.w3.org/2000/svg" xmlns:xlink="http://www.w3.org/1999/xlink"><style>:root>svg{display:none}:root>svg:target{display:block}</style><svg viewBox="0 0 8 12" id="arrow-down" xmlns="http://www.w3.org/2000/svg"><path d="M4.5 1a.5.5 0 00-1 0h1zm-.854 10.354a.5.5 0 00.708 0l3.182-3.182a.5.5 0 10-.708-.708L4 10.293 1.172 7.464a.5.5 0 10-.708.708l3.182 3.182zM3.5 1v10h1V1h-1z"/></svg><svg viewBox="0 0 11 11" id="basket" xmlns="http://www.w3.org/2000/svg"><g clip-path="url(#bclip0_123_938)"><path d="M5.081.555L3.214 3.667h4.572L5.918.555l.63-.377 2.093 3.489h1.844c.284 0 .515.23.515.515v.322c0 2.159-.503 4.288-1.468 6.219a.502.502 0 01-.449.277H1.917a.502.502 0 01-.449-.278A13.904 13.904 0 010 4.503v-.32c0-.285.231-.516.516-.516h1.843L4.451.178l.63.377z"/></g><defs><clipPath id="bclip0_123_938"><path d="M0 0h11v11H0z"/></clipPath></defs></svg><svg viewBox="0 0 6 6" id="check-mark" xmlns="http://www.w3.org/2000/svg"><path d="M.333 3l2 2 3.333-4" stroke="url(#cpaint0_linear_112_346)" stroke-width=".667" stroke-linecap="round" stroke-linejoin="round"/><defs><linearGradient id="cpaint0_linear_112_346" x1="-.82" y1="-1.5" x2="6.777" y2=".742" gradientUnits="userSpaceOnUse"><stop stop-color="#976464"/><stop offset="1" stop-color="#CFA5A5"/></linearGradient></defs></svg><svg viewBox="0 0 15 15" id="clock" xmlns="http://www.w3.org/2000/svg"><path d="M7.494 1.25c-3.45 0-6.244 2.8-6.244 6.25s2.794 6.25 6.244 6.25c3.456 0 6.256-2.8 6.256-6.25s-2.8-6.25-6.256-6.25zM10 10a.624.624 0 01-.881 0L7.063 7.944a.625.625 0 01-.188-.444V5c0-.344.281-.625.625-.625s.625.281.625.625v2.244L10 9.119A.623.623 0 0110 10z"/></svg><svg viewBox="0 0 16 15" id="enter" xmlns="http://www.w3.org/2000/svg"><path d="M3.313 13.125s-.938 0-.938-.938c0-.937.938-3.75 5.625-3.75 4.688 0 5.625 2.813 5.625 3.75 0 .938-.938.938-.938.938H3.313zM8 7.5a2.813 2.813 0 100-5.625A2.813 2.813 0 008 7.5z"/></svg><svg viewBox="0 0 19 19" id="exit" xmlns="http://www.w3.org/2000/svg"><g clip-path="url(#fclip0_120_190)"><path d="M18 3L10.875.624a.594.594 0 00-.781.563v1.781h-4.75a1.189 1.189 0 00-1.188 1.188v1.78a.594.594 0 001.188 0v-1.78h4.75v10.687h-4.75v-1.782a.594.594 0 00-1.188 0v1.782a1.189 1.189 0 001.188 1.187h4.75v1.781a.592.592 0 00.504.587.593.593 0 00.277-.023L18 16a.593.593 0 00.406-.564V3.563A.593.593 0 0018 2.999zm-3.75 7.094h-1.188a.594.594 0 010-1.188h1.188a.594.594 0 110 1.188z"/><path d="M6.111 10.861a.594.594 0 00.84.84L8.732 9.92a.596.596 0 000-.84L6.951 7.299a.594.594 0 10-.84.84l.768.767H1.188a.594.594 0 000 1.188h5.691l-.768.768z"/></g><defs><clipPath id="fclip0_120_190"><path d="M0 0h19v19H0z"/></clipPath></defs></svg><svg viewBox="0 0 18 16" id="eye-close" xmlns="http://www.w3.org/2000/svg"><path d="M8.921 10.188a2.188 2.188 0 002.18-2.378l-2.37 2.37c.063.005.126.008.19.008zm7.241-8.954L15.328.4a.156.156 0 00-.221 0l-2.135 2.136c-1.178-.602-2.502-.903-3.973-.903-3.753 0-6.554 1.955-8.402 5.865a1.178 1.178 0 000 1.006c.738 1.555 1.627 2.801 2.667 3.74l-2.066 2.065a.156.156 0 000 .22l.834.834a.156.156 0 00.22 0l13.91-13.908a.156.156 0 000-.221zM5.484 8a3.437 3.437 0 015.056-3.033l-.95.95a2.189 2.189 0 00-2.752 2.752l-.95.95A3.42 3.42 0 015.485 8z"/><path d="M17.403 7.496c-.688-1.448-1.506-2.629-2.455-3.542L12.133 6.77a3.44 3.44 0 01-4.441 4.44l-2.388 2.388c1.108.513 2.34.77 3.697.77 3.754 0 6.554-1.956 8.402-5.866a1.177 1.177 0 000-1.006z"/></svg><svg viewBox="0 0 18 14" id="eye-open" xmlns="http://www.w3.org/2000/svg"><path d="M6.734 7a2.188 2.188 0 104.375 0 2.188 2.188 0 00-4.375 0zm10.668-.504C15.55 2.596 12.752.633 8.999.633S2.45 2.596.598 6.498a1.178 1.178 0 000 1.006c1.852 3.9 4.65 5.863 8.402 5.863 3.754 0 6.551-1.963 8.403-5.865.15-.316.15-.684 0-1.006zm-8.48 3.941a3.438 3.438 0 110-6.875 3.438 3.438 0 010 6.876z"/></svg><svg viewBox="0 0 24 24" id="garbage-pail" xmlns="http://www.w3.org/2000/svg"><g clip-path="url(#iclip0_117_289)"><path d="M22.5 5.25h-6V3A2.253 2.253 0 0014.25.75h-4.5A2.252 2.252 0 007.5 3v2.25h-6a.75.75 0 000 1.5h21a.75.75 0 100-1.5zM9 5.25V3a.75.75 0 01.75-.75h4.5A.75.75 0 0115 3v2.25H9zM5.761 22.623a.75.75 0 00.74.627h11a.75.75 0 00.739-.627L20.636 8.25H3.366L5.76 22.623zM13.501 12a.75.75 0 011.5 0v7.5a.75.75 0 11-1.5 0V12zM9 12a.75.75 0 111.5 0v7.5a.75.75 0 11-1.5 0V12z"/></g><defs><clipPath id="iclip0_117_289"><path d="M0 0h24v24H0z"/></clipPath></defs></svg><svg viewBox="0 0 14 14" id="heart" xmlns="http://www.w3.org/2000/svg"><path d="M12.833 2.971c-.52-1.07-2.022-1.944-3.768-1.435A3.838 3.838 0 007 3.002a3.838 3.838 0 00-2.065-1.466c-1.75-.502-3.247.366-3.768 1.435-.731 1.497-.428 3.181.902 5.005C3.11 9.403 4.6 10.85 6.763 12.53a.389.389 0 00.478 0c2.158-1.676 3.652-3.111 4.694-4.554 1.326-1.824 1.63-3.508.898-5.005z"/></svg><svg viewBox="0 0 16 15" id="heart-transparent" xmlns="http://www.w3.org/2000/svg"><path d="M8 14.434a.5.5 0 01-.305-.105c-2.78-2.16-4.696-4.02-6.036-5.856-1.71-2.345-2.1-4.51-1.16-6.436.67-1.375 2.595-2.5 4.846-1.845C6.418.502 7.354 1.166 8 2.077A4.936 4.936 0 0110.655.192c2.246-.645 4.176.47 4.846 1.845.94 1.925.55 4.09-1.16 6.436-1.34 1.835-3.255 3.696-6.036 5.856a.5.5 0 01-.305.105zM4.064 1.007A2.95 2.95 0 001.4 2.472c-.775 1.59-.425 3.36 1.07 5.406A28.571 28.571 0 008 13.298a28.57 28.57 0 005.53-5.415c1.501-2.05 1.846-3.82 1.071-5.406-.5-1-2-1.795-3.67-1.325a4 4 0 00-2.47 2.1.5.5 0 01-.926 0 3.966 3.966 0 00-2.47-2.1 3.656 3.656 0 00-1-.145z"/><defs><linearGradient id="kpaint0_linear_111_777" x1="-3.459" y1="-9.021" x2="19.909" y2="-3.286" gradientUnits="userSpaceOnUse"><stop stop-color="#976464"/><stop offset="1" stop-color="#CFA5A5"/></linearGradient></defs></svg><svg viewBox="0 0 20 20" id="instagram" xmlns="http://www.w3.org/2000/svg"><path d="M10 0c2.717 0 3.056.01 4.122.06 1.065.05 1.79.217 2.428.465.66.254 1.216.598 1.772 1.153.509.5.902 1.105 1.153 1.772.247.637.415 1.363.465 2.428.047 1.066.06 1.405.06 4.122 0 2.717-.01 3.056-.06 4.122-.05 1.065-.218 1.79-.465 2.428a4.883 4.883 0 01-1.153 1.772c-.5.508-1.105.902-1.772 1.153-.637.247-1.363.415-2.428.465-1.066.047-1.405.06-4.122.06-2.717 0-3.056-.01-4.122-.06-1.065-.05-1.79-.218-2.428-.465a4.89 4.89 0 01-1.772-1.153A4.904 4.904 0 01.525 16.55C.277 15.913.11 15.187.06 14.122.013 13.056 0 12.717 0 10c0-2.717.01-3.056.06-4.122.05-1.066.217-1.79.465-2.428a4.88 4.88 0 011.153-1.772A4.897 4.897 0 013.45.525C4.088.277 4.812.11 5.878.06 6.944.013 7.283 0 10 0zm0 5a5 5 0 100 10 5 5 0 000-10zm6.5-.25a1.25 1.25 0 10-2.5 0 1.25 1.25 0 002.5 0zM10 7a3 3 0 110 6 3 3 0 010-6z"/></svg><svg viewBox="0 0 10 15" id="map-pointer" xmlns="http://www.w3.org/2000/svg"><path d="M5 14.064s5-4.86 5-8.548c0-1.36-.527-2.665-1.464-3.627A4.937 4.937 0 005 .387c-1.326 0-2.598.54-3.536 1.502A5.197 5.197 0 000 5.516c0 3.687 5 8.548 5 8.548zM5 8.08c-.663 0-1.299-.27-1.768-.751A2.598 2.598 0 012.5 5.516c0-.68.263-1.333.732-1.814A2.469 2.469 0 015 2.952c.663 0 1.299.27 1.768.75.469.481.732 1.133.732 1.814 0 .68-.263 1.332-.732 1.813A2.469 2.469 0 015 8.08z"/></svg><svg viewBox="0 0 16 15" id="pencil" xmlns="http://www.w3.org/2000/svg"><path d="M5.805 12.317L12 6.509 9.057 3.75 2.862 9.558a.618.618 0 00-.175.29L2 13.125l3.495-.644a.68.68 0 00.31-.164zM14 4.634c.25-.235.39-.553.39-.884 0-.331-.14-.65-.39-.884l-1.057-.991A1.38 1.38 0 0012 1.509a1.38 1.38 0 00-.943.366L10 2.866l2.943 2.759L14 4.634z"/></svg><svg viewBox="0 0 14 14" id="phone" xmlns="http://www.w3.org/2000/svg"><path d="M10.5 5.688h-.875a1.314 1.314 0 00-1.313-1.313V3.5A2.19 2.19 0 0110.5 5.688z"/><path d="M12.25 5.688h-.875a3.066 3.066 0 00-3.063-3.063V1.75a3.942 3.942 0 013.938 3.938zM8.896 9.398l.98-.98a.948.948 0 011.022-.21l1.194.478a.948.948 0 01.596.88v2.17a.948.948 0 01-1 .95C3.322 12.166 1.633 5.079 1.32 2.366a.946.946 0 01.943-1.054h2.131a.948.948 0 01.88.596l.478 1.194a.948.948 0 01-.21 1.022l-.98.98s.543 3.82 4.335 4.294z"/></svg><svg viewBox="0 0 35 36" id="reviews" xmlns="http://www.w3.org/2000/svg"><path fill-rule="evenodd" clip-rule="evenodd" d="M26.701 30.817l4.41 4.426V27.13C33.541 24.28 35 20.651 35 16.7 35 7.538 27.164.11 17.5.11S0 7.538 0 16.7c0 9.163 7.836 16.592 17.5 16.592a18.13 18.13 0 009.201-2.475z"/></svg><svg viewBox="0 0 13 13" id="search" xmlns="http://www.w3.org/2000/svg"><path d="M11.603 12.635a.554.554 0 00.794-.774l-.794.774zM9.8 9.192a.554.554 0 10-.794.774l.794-.774zM1 6.012H.446 1zM5.921.964V.41v.554zm6.476 10.897L9.8 9.192l-.794.774 2.597 2.669.794-.774zm-2.11-5.849a4.56 4.56 0 01-1.283 3.183l.794.774a5.669 5.669 0 001.598-3.957h-1.108zM9.005 9.195a4.305 4.305 0 01-3.083 1.31v1.11a5.414 5.414 0 003.877-1.646l-.794-.774zm-3.083 1.31a4.305 4.305 0 01-3.083-1.31l-.794.774a5.414 5.414 0 003.877 1.646v-1.11zm-3.083-1.31a4.56 4.56 0 01-1.284-3.183H.446c0 1.482.573 2.905 1.598 3.957l.794-.774zM1.554 6.012A4.56 4.56 0 012.838 2.83l-.794-.774A5.669 5.669 0 00.446 6.012h1.108zM2.838 2.83a4.305 4.305 0 013.083-1.311V.409a5.414 5.414 0 00-3.877 1.647l.794.774zm3.083-1.311c1.154 0 2.263.47 3.083 1.31l.794-.773A5.414 5.414 0 005.92.41v1.109zm3.083 1.31a4.56 4.56 0 011.284 3.183h1.108a5.669 5.669 0 00-1.598-3.956l-.794.774z"/></svg><svg viewBox="0 0 20 19" id="star" xmlns="http://www.w3.org/2000/svg"><path d="M10 0l2.245 6.91h7.266l-5.878 4.27 2.245 6.91L10 13.82l-5.878 4.27 2.245-6.91L.49 6.91h7.266L10 0z"/></svg></svg>