<svg width="16" height="15" viewBox="0 0 16 15" fill="none" xmlns="http://www.w3.org/2000/svg">
<path d="M5.80467 12.3169L12 6.50877L9.05733 3.75002L2.862 9.55814C2.77671 9.6382 2.71612 9.73841 2.68667 9.84814L2 13.125L5.49467 12.4813C5.612 12.4538 5.71933 12.3969 5.80467 12.3169ZM14 4.63377C14.25 4.39936 14.3904 4.08147 14.3904 3.75002C14.3904 3.41856 14.25 3.10068 14 2.86627L12.9427 1.87502C12.6926 1.64068 12.3536 1.50903 12 1.50903C11.6464 1.50903 11.3074 1.64068 11.0573 1.87502L10 2.86627L12.9427 5.62502L14 4.63377Z" fill="#BDBDBD"/>
</svg>
